<?xml version="1.0" encoding="utf-8"?>
<svg viewBox="0 0 500 500" xmlns="http://www.w3.org/2000/svg">
  <defs>
    <path id="text-path-0" d="M 162.1188026476507 204.92945166137537 Q 249.99999416496442 111.07052540670696 337.8811856822781 204.92945166137537"/>
  </defs>
  <title>5</title>
  <path class="cls-1" d="M 0.001 249.79 C 0.337 111.17 112.485 -0.566 250.711 0.002 C 389.055 0.552 500.279 112.324 499.999 250.5 C 499.719 388.676 387.543 500.472 249.689 499.998 C 111.297 499.53 -0.329 387.682 0.001 249.79 Z" style="fill: rgb(1, 1, 1);"/>
  <path class="cls-2" d="M 95.043 268.84 C 114.655 268.84 134.273 268.956 153.885 268.746 C 157.901 268.702 159.489 269.848 160.477 273.852 C 170.817 314.394 207.723 342.728 250.025 342.828 C 292.109 342.948 328.973 314.62 339.743 273.884 C 340.841 269.792 342.363 268.746 346.335 268.764 C 385.769 268.892 425.205 268.892 464.643 268.764 C 469.037 268.764 469.873 269.588 469.389 274.214 C 459.989 363.928 394.603 442.294 303.209 464.1 C 228.369 481.95 160.923 465.112 102.925 414.196 C 63.371 379.49 40.467 335.208 31.825 283.424 C 29.393 268.834 29.359 268.846 44.275 268.846 L 95.043 268.84 Z" style="fill: rgb(142, 6, 44);"/>
  <path class="cls-3" d="M 404.723 230.994 C 385.527 230.994 366.327 230.852 347.137 231.098 C 342.555 231.16 340.737 229.598 339.495 225.246 C 328.623 187.082 295.227 159.45 257.787 157.376 C 215.607 155.032 180.007 176.784 164.021 214.662 C 163.543 215.8 163.109 216.968 162.713 218.134 C 158.319 230.994 158.319 230.994 144.365 230.994 C 108.859 230.994 73.359 230.912 37.853 231.076 C 32.573 231.076 30.249 230.57 31.199 224.08 C 43.725 138.436 89.553 77.706 169.449 45.302 C 255.551 10.348 350.797 33.536 413.331 102.032 C 444.683 136.374 463.021 177.01 468.817 223.228 C 469.785 230.988 469.719 231.01 461.715 231.016 C 442.713 231.006 423.717 230.998 404.723 230.994 Z" style="fill: rgb(211, 10, 64);"/>
  <path class="cls-2" d="M 250.579 314.992 C 215.349 315.306 185.491 286.454 185.205 251.82 C 184.903 214.816 213.365 185.26 249.509 185.024 C 285.135 184.798 314.593 213.776 315.043 249.5 C 315.505 284.996 286.283 314.702 250.579 314.992 Z" style="fill: rgb(255, 255, 255);"/>
</svg>